<svg width="138" height="100" viewBox="0 0 138 100" fill="none" xmlns="http://www.w3.org/2000/svg">
<rect x="0.5" y="0.5" width="137" height="99" fill="white" stroke="#F3F3FD"/>
<mask id="mask0" mask-type="alpha" maskUnits="userSpaceOnUse" x="0" y="0" width="138" height="100">
<rect x="0.5" y="0.5" width="137" height="99" fill="white" stroke="#F3F3FD"/>
</mask>
<g mask="url(#mask0)">
<path d="M98.3979 178H-31.3203C-34.1213 178 -35.5218 175.187 -34.8216 173.078L21.199 68.7671C24.7003 59.6256 33.8036 54 43.6072 54H160.5C163.301 54 164.702 56.8128 164.001 58.9224L101.899 175.89C101.199 176.594 99.7985 178 98.3979 178Z" fill="#2BAF32"/>
</g>
<g clip-path="url(#clip0)">
<path fill-rule="evenodd" clip-rule="evenodd" d="M28.2894 33.6537L22.7635 37.5171L10.7692 33.6537H28.2894V33.6537ZM19.8506 20.5268L15.1385 31.9415H11.1119L15.267 21.8878C15.6097 21.0976 16.1666 20.5268 17.0662 20.5268H19.8506V20.5268ZM27.1328 26.8049V30.5366C27.1328 31.3707 26.5331 31.9415 25.7192 31.9415H22.7206L24.8196 26.8049H27.1328ZM27.1328 20.5268V25.1366H23.7915L20.9643 31.9415H16.9377L21.6497 20.5268H27.1328V20.5268Z" fill="#33B44A"/>
<path d="M34.3722 20.5707H38.8701L40.6264 27.5073L42.3398 20.5707H46.8377V31.9854H44.0533V23.2927L41.8686 31.9854H39.3413L37.1566 23.2927V31.9854H34.3722V20.5707Z" fill="#007AC2"/>
<path d="M48.2513 20.5707H58.7035V23.4244H55.1909V31.9854H51.764V23.4244H48.2513V20.5707Z" fill="#007AC2"/>
<path d="M60.2456 20.5707H66.6711C67.742 20.5707 68.5559 20.8342 69.1556 21.4049C69.7125 21.9317 70.0124 22.6342 70.0124 23.4244C70.0124 24.0829 69.7982 24.6537 69.4127 25.1366C69.1556 25.4439 68.7273 25.7073 68.2132 25.8829C69.0271 26.0585 69.584 26.4098 69.9695 26.8927C70.3551 27.3756 70.5264 27.9903 70.5264 28.6927C70.5264 29.2634 70.3979 29.8342 70.1409 30.2732C69.8839 30.7561 69.4983 31.1073 69.0271 31.3707C68.7273 31.5463 68.2989 31.6781 67.742 31.722C66.971 31.8098 66.4569 31.8976 66.1999 31.8976H60.2884V20.5707H60.2456ZM63.7154 25.0488H65.2147C65.7287 25.0488 66.1142 24.961 66.3284 24.7854C66.5426 24.6098 66.6283 24.3024 66.6283 23.9512C66.6283 23.6 66.5426 23.3805 66.3284 23.161C66.1142 22.9854 65.7715 22.8976 65.2147 22.8976H63.7154V25.0488V25.0488ZM63.7154 29.5268H65.4717C66.0714 29.5268 66.4998 29.439 66.714 29.2195C66.971 29 67.0995 28.7366 67.0995 28.3415C67.0995 27.9903 66.971 27.7268 66.7568 27.5512C66.4998 27.3317 66.1142 27.2439 65.5145 27.2439H63.7582V29.5268H63.7154Z" fill="#007AC2"/>
<path d="M77.4659 20.5707H83.8915C84.9624 20.5707 85.7763 20.8342 86.376 21.4049C86.9329 21.9317 87.2327 22.6342 87.2327 23.4244C87.2327 24.0829 87.0185 24.6537 86.633 25.1366C86.376 25.4439 85.9476 25.7073 85.4336 25.8829C86.2475 26.0585 86.8044 26.4098 87.1899 26.8927C87.5754 27.3756 87.7468 27.9903 87.7468 28.6927C87.7468 29.2634 87.6183 29.8342 87.3612 30.2732C87.1042 30.7561 86.7187 31.1073 86.2475 31.3707C85.9476 31.5463 85.5193 31.6781 84.9624 31.722C84.1913 31.8098 83.6773 31.8976 83.4202 31.8976H77.5088V20.5707H77.4659ZM80.9357 25.0488H82.435C82.949 25.0488 83.3346 24.961 83.5488 24.7854C83.7629 24.6098 83.8486 24.3024 83.8486 23.9512C83.8486 23.6 83.7629 23.3805 83.5488 23.161C83.3346 22.9854 82.9919 22.8976 82.435 22.8976H80.9357V25.0488ZM80.9357 29.5268H82.692C83.2917 29.5268 83.7201 29.439 83.9343 29.2195C84.1913 29 84.3198 28.7366 84.3198 28.3415C84.3198 27.9903 84.1913 27.7268 83.9771 27.5512C83.7201 27.3317 83.3346 27.2439 82.692 27.2439H80.9357V29.5268Z" fill="#007AC2"/>
<path d="M96.0571 30.0976H92.159L91.6021 31.9854H88.0895L92.2875 20.6147H96.0571L100.212 31.9854H96.614L96.0571 30.0976ZM95.3717 27.639L94.1723 23.5561L92.9729 27.639H95.3717Z" fill="#007AC2"/>
<path d="M101.326 20.5707H104.539L108.694 26.8927V20.5707H111.95V31.9854H108.694L104.582 25.7073V31.9854H101.326V20.5707Z" fill="#007AC2"/>
<path d="M114.22 20.5707H117.647V24.8732L121.245 20.5707H125.829L121.759 24.8732L126 31.9854H121.802L119.446 27.2878L117.647 29.2195V31.9854H114.22V20.5707Z" fill="#007AC2"/>
</g>
<path d="M42.473 80.13C41.5456 80.13 40.7093 79.9307 39.964 79.532C39.2186 79.1247 38.6336 78.5657 38.209 77.855C37.7843 77.1357 37.572 76.334 37.572 75.45C37.572 74.566 37.7843 73.7687 38.209 73.058C38.6336 72.3387 39.2186 71.7797 39.964 71.381C40.7093 70.9737 41.5456 70.77 42.473 70.77C43.4003 70.77 44.2366 70.9737 44.982 71.381C45.7273 71.7797 46.3123 72.3343 46.737 73.045C47.1616 73.7557 47.374 74.5573 47.374 75.45C47.374 76.3427 47.1616 77.1443 46.737 77.855C46.3123 78.5657 45.7273 79.1247 44.982 79.532C44.2366 79.9307 43.4003 80.13 42.473 80.13ZM42.473 78.648C43.0796 78.648 43.6256 78.5137 44.111 78.245C44.5963 77.9677 44.9776 77.5863 45.255 77.101C45.5323 76.607 45.671 76.0567 45.671 75.45C45.671 74.8433 45.5323 74.2973 45.255 73.812C44.9776 73.318 44.5963 72.9367 44.111 72.668C43.6256 72.3907 43.0796 72.252 42.473 72.252C41.8663 72.252 41.3203 72.3907 40.835 72.668C40.3496 72.9367 39.9683 73.318 39.691 73.812C39.4136 74.2973 39.275 74.8433 39.275 75.45C39.275 76.0567 39.4136 76.607 39.691 77.101C39.9683 77.5863 40.3496 77.9677 40.835 78.245C41.3203 78.5137 41.8663 78.648 42.473 78.648ZM55.9764 73.058V80H54.3644V74.436H50.9454V80H49.3204V73.058H55.9764ZM64.7211 73.058V80H63.0961V74.436H60.4961L60.4311 75.814C60.3877 76.7327 60.3011 77.504 60.1711 78.128C60.0497 78.7433 59.8374 79.233 59.5341 79.597C59.2394 79.9523 58.8321 80.13 58.3121 80.13C58.0694 80.13 57.7704 80.0823 57.4151 79.987L57.4931 78.622C57.6144 78.648 57.7184 78.661 57.8051 78.661C58.1344 78.661 58.3814 78.531 58.5461 78.271C58.7107 78.0023 58.8147 77.686 58.8581 77.322C58.9101 76.9493 58.9534 76.4207 58.9881 75.736L59.1051 73.058H64.7211ZM69.7565 72.98C70.7792 72.98 71.5592 73.227 72.0965 73.721C72.6425 74.2063 72.9155 74.943 72.9155 75.931V80H71.3815V79.155C71.1822 79.4583 70.8962 79.6923 70.5235 79.857C70.1595 80.013 69.7175 80.091 69.1975 80.091C68.6775 80.091 68.2225 80.0043 67.8325 79.831C67.4425 79.649 67.1392 79.402 66.9225 79.09C66.7145 78.7693 66.6105 78.4097 66.6105 78.011C66.6105 77.387 66.8402 76.8887 67.2995 76.516C67.7675 76.1347 68.4999 75.944 69.4965 75.944H71.2905V75.84C71.2905 75.3547 71.1432 74.982 70.8485 74.722C70.5625 74.462 70.1335 74.332 69.5615 74.332C69.1715 74.332 68.7859 74.3927 68.4045 74.514C68.0319 74.6353 67.7155 74.8043 67.4555 75.021L66.8185 73.838C67.1825 73.5607 67.6202 73.3483 68.1315 73.201C68.6429 73.0537 69.1845 72.98 69.7565 72.98ZM69.5355 78.908C69.9429 78.908 70.3025 78.817 70.6145 78.635C70.9352 78.4443 71.1605 78.1757 71.2905 77.829V77.023H69.6135C68.6775 77.023 68.2095 77.3307 68.2095 77.946C68.2095 78.2407 68.3265 78.4747 68.5605 78.648C68.7945 78.8213 69.1195 78.908 69.5355 78.908ZM80.6854 74.436H78.2544V80H76.6294V74.436H74.1854V73.058H80.6854V74.436ZM82.1241 73.058H83.7491V77.634L87.5841 73.058H89.0661V80H87.4411V75.424L83.6191 80H82.1241V73.058ZM97.011 74.436H94.58V80H92.955V74.436H90.511V73.058H97.011V74.436ZM101.934 75.346C102.818 75.346 103.494 75.5453 103.962 75.944C104.438 76.3427 104.677 76.906 104.677 77.634C104.677 78.3967 104.417 78.986 103.897 79.402C103.377 79.818 102.644 80.0217 101.7 80.013L98.4498 80V73.058H100.075V75.333L101.934 75.346ZM101.557 78.817C102.033 78.8257 102.397 78.726 102.649 78.518C102.9 78.31 103.026 78.0067 103.026 77.608C103.026 77.218 102.904 76.932 102.662 76.75C102.419 76.568 102.051 76.4727 101.557 76.464L100.075 76.451V78.804L101.557 78.817Z" fill="white"/>
<path d="M111.661 75.7634C111.706 75.7564 111.752 75.7532 111.797 75.7538H119.558L119.388 75.6787C119.223 75.604 119.072 75.5024 118.944 75.3784L116.767 73.3022C116.481 73.0412 116.433 72.6213 116.653 72.3073C116.91 71.9727 117.403 71.9001 117.753 72.1451C117.782 72.1649 117.809 72.1865 117.834 72.2097L121.769 75.964C122.077 76.2571 122.077 76.7325 121.77 77.0259C121.77 77.0261 121.769 77.0263 121.769 77.0265L117.834 80.7808C117.526 81.0736 117.028 81.073 116.721 80.7793C116.697 80.7562 116.674 80.7316 116.653 80.7057C116.433 80.3918 116.481 79.9719 116.767 79.7108L118.94 77.6309C119.055 77.5207 119.188 77.4282 119.333 77.3569L119.569 77.2555H111.841C111.439 77.2698 111.086 77.0018 111.01 76.6248C110.941 76.2155 111.232 75.8298 111.661 75.7634Z" fill="white"/>
<defs>
<clipPath id="clip0">
<rect width="117" height="18" fill="white" transform="translate(9 20)"/>
</clipPath>
</defs>
</svg>
